<svg width="21" height="21" viewBox="0 0 21 21" fill="none" xmlns="http://www.w3.org/2000/svg">
<path d="M8.94897 4.7086C9.29974 4.65484 9.65411 4.62809 10.009 4.6286C13.189 4.6286 16.179 6.9186 17.919 10.6286C17.6529 11.1932 17.3523 11.7409 17.019 12.2686C16.9132 12.4324 16.8575 12.6236 16.859 12.8186C16.8612 13.0368 16.9348 13.2484 17.0684 13.4209C17.2021 13.5934 17.3886 13.7175 17.5993 13.7741C17.8101 13.8308 18.0336 13.8169 18.2358 13.7347C18.4379 13.6524 18.6076 13.5063 18.719 13.3186C19.1849 12.5865 19.5896 11.8173 19.929 11.0186C19.9826 10.8938 20.0103 10.7594 20.0103 10.6236C20.0103 10.4878 19.9826 10.3534 19.929 10.2286C17.909 5.5386 14.109 2.6286 10.009 2.6286C9.53964 2.62624 9.07106 2.6664 8.60897 2.7486C8.47765 2.77093 8.35201 2.8189 8.23923 2.88978C8.12645 2.96066 8.02873 3.05306 7.95166 3.16171C7.87459 3.27035 7.81967 3.39311 7.79004 3.52298C7.76041 3.65285 7.75665 3.78728 7.77897 3.9186C7.8013 4.04993 7.84927 4.17556 7.92015 4.28835C7.99103 4.40113 8.08343 4.49885 8.19208 4.57592C8.30072 4.65299 8.42348 4.70791 8.55335 4.73754C8.68322 4.76717 8.81765 4.77093 8.94897 4.7486V4.7086ZM1.71897 0.918603C1.62574 0.825365 1.51505 0.751404 1.39322 0.700944C1.2714 0.650483 1.14083 0.624512 1.00897 0.624512C0.877115 0.624512 0.746547 0.650483 0.624725 0.700944C0.502903 0.751404 0.392213 0.825365 0.298974 0.918603C0.110671 1.10691 0.00488281 1.3623 0.00488281 1.6286C0.00488281 1.8949 0.110671 2.1503 0.298974 2.3386L3.39897 5.4286C1.98455 6.79013 0.858831 8.42259 0.0889744 10.2286C0.033911 10.3548 0.00548959 10.4909 0.00548959 10.6286C0.00548959 10.7663 0.033911 10.9024 0.0889744 11.0286C2.10897 15.7186 5.90897 18.6286 10.009 18.6286C11.8061 18.6162 13.5607 18.0811 15.059 17.0886L18.299 20.3386C18.3919 20.4323 18.5025 20.5067 18.6244 20.5575C18.7463 20.6083 18.877 20.6344 19.009 20.6344C19.141 20.6344 19.2717 20.6083 19.3936 20.5575C19.5154 20.5067 19.626 20.4323 19.719 20.3386C19.8127 20.2456 19.8871 20.135 19.9379 20.0132C19.9886 19.8913 20.0148 19.7606 20.0148 19.6286C20.0148 19.4966 19.9886 19.3659 19.9379 19.244C19.8871 19.1222 19.8127 19.0116 19.719 18.9186L1.71897 0.918603ZM8.07897 10.1086L10.529 12.5586C10.36 12.6071 10.1848 12.6307 10.009 12.6286C9.47854 12.6286 8.96983 12.4179 8.59476 12.0428C8.21969 11.6677 8.00897 11.159 8.00897 10.6286C8.00693 10.4528 8.03051 10.2776 8.07897 10.1086ZM10.009 16.6286C6.82897 16.6286 3.83897 14.3386 2.10897 10.6286C2.75506 9.20235 3.67205 7.91518 4.80897 6.8386L6.57897 8.6286C6.16322 9.3874 6.00471 10.2605 6.12723 11.1171C6.24975 11.9736 6.64669 12.7673 7.2585 13.3791C7.87031 13.9909 8.66401 14.3878 9.52052 14.5103C10.377 14.6329 11.2502 14.4744 12.009 14.0586L13.599 15.6286C12.5101 16.2695 11.2724 16.6142 10.009 16.6286Z" fill="#84878B"/>
</svg>
