<svg width="21" height="17" viewBox="0 0 21 17" fill="none" xmlns="http://www.w3.org/2000/svg">
<path d="M20.773 7.90908C18.7537 3.21908 14.955 0.309082 10.8564 0.309082C6.75787 0.309082 2.9592 3.21908 0.939901 7.90908C0.884857 8.03525 0.856445 8.17142 0.856445 8.30908C0.856445 8.44674 0.884857 8.58292 0.939901 8.70908C2.9592 13.3991 6.75787 16.3091 10.8564 16.3091C14.955 16.3091 18.7537 13.3991 20.773 8.70908C20.828 8.58292 20.8564 8.44674 20.8564 8.30908C20.8564 8.17142 20.828 8.03525 20.773 7.90908ZM10.8564 14.3091C7.68755 14.3091 4.68859 12.0191 2.9592 8.30908C4.68859 4.59908 7.68755 2.30908 10.8564 2.30908C14.0253 2.30908 17.0243 4.59908 18.7537 8.30908C17.0243 12.0191 14.0253 14.3091 10.8564 14.3091ZM10.8564 4.30908C10.0656 4.30908 9.29251 4.54368 8.63494 4.9832C7.97737 5.42273 7.46486 6.04744 7.16221 6.77835C6.85957 7.50925 6.78038 8.31352 6.93467 9.08944C7.08896 9.86537 7.46979 10.5781 8.029 11.1375C8.58822 11.6969 9.3007 12.0779 10.0764 12.2322C10.852 12.3866 11.656 12.3074 12.3866 12.0046C13.1173 11.7018 13.7418 11.1892 14.1812 10.5314C14.6205 9.87357 14.8551 9.10021 14.8551 8.30908C14.8551 7.24822 14.4338 6.2308 13.6839 5.48065C12.934 4.73051 11.9169 4.30908 10.8564 4.30908ZM10.8564 10.3091C10.461 10.3091 10.0745 10.1918 9.74569 9.97202C9.41691 9.75226 9.16065 9.4399 9.00933 9.07445C8.85801 8.709 8.81841 8.30686 8.89556 7.9189C8.9727 7.53094 9.16312 7.17457 9.44273 6.89487C9.72233 6.61516 10.0786 6.42468 10.4664 6.34751C10.8542 6.27034 11.2562 6.30995 11.6215 6.46132C11.9869 6.6127 12.2991 6.86904 12.5188 7.19794C12.7385 7.52684 12.8557 7.91352 12.8557 8.30908C12.8557 8.83951 12.6451 9.34822 12.2702 9.7233C11.8952 10.0984 11.3867 10.3091 10.8564 10.3091Z" fill="#B1B5C4"/>
</svg>
