<svg width="27" height="12" viewBox="0 0 27 12" fill="none" xmlns="http://www.w3.org/2000/svg">
<path d="M6.38477 1.04688H8.42871V7.62305C8.42871 8.38867 8.26465 9.03353 7.93652 9.55762C7.61296 10.0817 7.16406 10.4759 6.58984 10.7402C6.02018 11.0046 5.36393 11.1367 4.62109 11.1367C3.87826 11.1367 3.21745 11.0046 2.63867 10.7402C2.06445 10.4759 1.61328 10.0817 1.28516 9.55762C0.961589 9.03353 0.799805 8.38867 0.799805 7.62305V1.04688H2.85059V7.62305C2.85059 8.06966 2.92122 8.43424 3.0625 8.7168C3.20378 8.99935 3.40658 9.20671 3.6709 9.33887C3.93978 9.47103 4.25651 9.53711 4.62109 9.53711C4.99479 9.53711 5.31152 9.47103 5.57129 9.33887C5.83561 9.20671 6.03613 8.99935 6.17285 8.7168C6.31413 8.43424 6.38477 8.06966 6.38477 7.62305V1.04688ZM15.2988 8.39551C15.2988 8.21777 15.2715 8.05827 15.2168 7.91699C15.1667 7.77116 15.071 7.639 14.9297 7.52051C14.7884 7.39746 14.5902 7.27669 14.335 7.1582C14.0798 7.03971 13.7493 6.91667 13.3438 6.78906C12.8926 6.64323 12.4642 6.47917 12.0586 6.29688C11.6576 6.11458 11.3021 5.90267 10.9922 5.66113C10.6868 5.41504 10.4453 5.13021 10.2676 4.80664C10.0944 4.48307 10.0078 4.1071 10.0078 3.67871C10.0078 3.264 10.099 2.88802 10.2812 2.55078C10.4635 2.20898 10.7188 1.91732 11.0469 1.67578C11.375 1.42969 11.7624 1.24056 12.209 1.1084C12.6602 0.976237 13.1546 0.910156 13.6924 0.910156C14.4261 0.910156 15.0664 1.04232 15.6133 1.30664C16.1602 1.57096 16.584 1.93327 16.8848 2.39355C17.1901 2.85384 17.3428 3.38021 17.3428 3.97266H15.3057C15.3057 3.68099 15.2441 3.42578 15.1211 3.20703C15.0026 2.98372 14.8203 2.80827 14.5742 2.68066C14.3327 2.55306 14.0273 2.48926 13.6582 2.48926C13.3027 2.48926 13.0065 2.54395 12.7695 2.65332C12.5326 2.75814 12.3548 2.90169 12.2363 3.08398C12.1178 3.26172 12.0586 3.46224 12.0586 3.68555C12.0586 3.85417 12.0996 4.00684 12.1816 4.14355C12.2682 4.28027 12.3958 4.40788 12.5645 4.52637C12.7331 4.64486 12.9404 4.75651 13.1865 4.86133C13.4326 4.96615 13.7174 5.06868 14.041 5.16895C14.5833 5.33301 15.0596 5.51758 15.4697 5.72266C15.8844 5.92773 16.2308 6.15788 16.5088 6.41309C16.7868 6.66829 16.9964 6.95768 17.1377 7.28125C17.279 7.60482 17.3496 7.97168 17.3496 8.38184C17.3496 8.81478 17.2653 9.20215 17.0967 9.54395C16.9281 9.88574 16.6842 10.1751 16.3652 10.4121C16.0462 10.6491 15.6657 10.8291 15.2236 10.9521C14.7816 11.0752 14.2871 11.1367 13.7402 11.1367C13.248 11.1367 12.7627 11.0729 12.2842 10.9453C11.8057 10.8132 11.3704 10.6149 10.9785 10.3506C10.5911 10.0863 10.2812 9.74902 10.0488 9.33887C9.81641 8.92871 9.7002 8.44336 9.7002 7.88281H11.7578C11.7578 8.19271 11.8057 8.45475 11.9014 8.66895C11.9971 8.88314 12.1315 9.05632 12.3047 9.18848C12.4824 9.32064 12.6921 9.41634 12.9336 9.47559C13.1797 9.53483 13.4486 9.56445 13.7402 9.56445C14.0957 9.56445 14.3874 9.51432 14.6152 9.41406C14.8477 9.3138 15.0186 9.1748 15.1279 8.99707C15.2419 8.81934 15.2988 8.61882 15.2988 8.39551ZM21.7998 11H19.6328L19.6465 9.40039H21.7998C22.3376 9.40039 22.791 9.27962 23.1602 9.03809C23.5293 8.79199 23.8073 8.43424 23.9941 7.96484C24.1855 7.49544 24.2812 6.92806 24.2812 6.2627V5.77734C24.2812 5.26693 24.2266 4.81803 24.1172 4.43066C24.0124 4.04329 23.8551 3.71745 23.6455 3.45312C23.4359 3.1888 23.1784 2.99056 22.873 2.8584C22.5677 2.72168 22.2168 2.65332 21.8203 2.65332H19.5918V1.04688H21.8203C22.4857 1.04688 23.0941 1.16081 23.6455 1.38867C24.2015 1.61198 24.6823 1.93327 25.0879 2.35254C25.4935 2.77181 25.8057 3.27311 26.0244 3.85645C26.2477 4.43522 26.3594 5.08008 26.3594 5.79102V6.2627C26.3594 6.96908 26.2477 7.61393 26.0244 8.19727C25.8057 8.7806 25.4935 9.2819 25.0879 9.70117C24.6868 10.1159 24.2061 10.4372 23.6455 10.665C23.0895 10.8883 22.4743 11 21.7998 11ZM20.7949 1.04688V11H18.7441V1.04688H20.7949Z" fill="#84878B"/>
</svg>
