<svg width="10" height="7" viewBox="0 0 10 7" fill="none" xmlns="http://www.w3.org/2000/svg">
<path d="M9.29088 0.366557C9.23138 0.306571 9.1606 0.258958 9.08261 0.226466C9.00462 0.193974 8.92097 0.177246 8.83648 0.177246C8.75199 0.177246 8.66834 0.193974 8.59035 0.226466C8.51236 0.258958 8.44158 0.306571 8.38208 0.366557L3.61408 5.14096L1.61087 3.13136C1.5491 3.07169 1.47618 3.02477 1.39627 2.99328C1.31636 2.96179 1.23103 2.94634 1.14516 2.94783C1.05928 2.94931 0.974541 2.9677 0.895771 3.00193C0.817 3.03617 0.745745 3.08559 0.686072 3.14736C0.626399 3.20913 0.579478 3.28206 0.547988 3.36196C0.516497 3.44187 0.501054 3.5272 0.502539 3.61307C0.504025 3.69895 0.522411 3.78369 0.556647 3.86246C0.590883 3.94123 0.640298 4.01249 0.702072 4.07216L3.15967 6.52976C3.21917 6.58975 3.28996 6.63736 3.36795 6.66985C3.44594 6.70235 3.52959 6.71907 3.61408 6.71907C3.69856 6.71907 3.78221 6.70235 3.8602 6.66985C3.93819 6.63736 4.00898 6.58975 4.06848 6.52976L9.29088 1.30736C9.35584 1.24743 9.40769 1.17469 9.44315 1.09373C9.47861 1.01277 9.49692 0.925343 9.49692 0.836958C9.49692 0.748573 9.47861 0.661145 9.44315 0.580185C9.40769 0.499226 9.35584 0.426488 9.29088 0.366557Z" fill="#FCFCFD"/>
</svg>
